# xmcd CD database file
#
# Track frame offsets:
#	150
#	26450
#	44827
#	63595
#	77960
#	96738
#	114765
#	131697
#	152737
#	166790
#	188343
#	205993
#	223965
#	236600
#	254213
#	267720
#	285226
#	298603
#	317418
#	328720
#
# Disc length: 4621 seconds
#
# Revision: 0
# Processed by: cddbd v1.5.2PL0 Copyright (c) Steve Scherf et al.
# Submitted via: CDex 1.70beta2
#
DISCID=34120b14
DTITLE=Hospital do Câncer de Barretos - Direito de Viver 7
DYEAR=1900
DGENRE=Country
TTITLE0=Vários Artistas - O dia do bem
TTITLE1=Zezé di Camargo and Luciano - Vai dar Tudo Certo
TTITLE2=Chitãozinho and Xororó - Depois de Mim
TTITLE3=RioNegro and Solimões - Eu Sem Você
TTITLE4=Leonardo - Sinhá Moça
TTITLE5=Bruno and Marrone - Raio de Luar
TTITLE6=Rick and Renner - Eu e o Sabiá
TTITLE7=Fábio Jr. - Obrigado
TTITLE8=Edson and Hudson - Assovia
TTITLE9=Daniel - Quando eu Quero Falar com Deus
TTITLE10=Sérgio Reis - Cidadão
TTITLE11=Gian and Giovani Cantinho da Saudade
TTITLE12=Milionário and José Rico - Do Mundo Nada Se Leva
TTITLE13=Gino and Geno - Querendo Maria
TTITLE14=Teodoro and Sampaio - Mulher Chorona
TTITLE15=Eduardo Costa - Me Apaixonei por Você
TTITLE16=Ataíde and Alexandre - Tá Nervoso... Vai Pescá!
TTITLE17=Guilherme and Santiago - Chovendo Estrelas
TTITLE18=César Menotti and Fabiano - Mensagem Pra Ela
TTITLE19=Cezar and Paulinho - Amor Além da Vida
EXTD=
EXTT0=
EXTT1=
EXTT2=
EXTT3=
EXTT4=
EXTT5=
EXTT6=
EXTT7=
EXTT8=
EXTT9=
EXTT10=
EXTT11=
EXTT12=
EXTT13=
EXTT14=
EXTT15=
EXTT16=
EXTT17=
EXTT18=
EXTT19=
PLAYORDER=
